<?xml version="1.0" encoding="iso-8859-1"?>
<!-- Generator: Adobe Illustrator 19.0.0, SVG Export Plug-In . SVG Version: 6.00 Build 0)  -->
<svg version="1.1" id="Layer_1" xmlns="http://www.w3.org/2000/svg" xmlns:xlink="http://www.w3.org/1999/xlink" x="0px" y="0px"
	 viewBox="0 0 512.001 512.001" style="enable-background:new 0 0 512.001 512.001;" xml:space="preserve">
<path style="fill:#FF7D3C;" d="M237.143,496.342c-98.49,0-178.616-80.127-178.616-178.616V194.274
	c-0.001-98.49,80.127-178.616,178.616-178.616h37.045l2.11,0.02c47.327,0.375,91.816,19.142,125.271,52.842
	c33.473,33.719,51.909,78.379,51.909,125.756v123.452c0,47.375-18.435,92.036-51.909,125.756
	c-33.456,33.7-77.944,52.467-125.271,52.842l-2.451,0.02h-36.703V496.342z"/>
<path style="fill:#FFB995;" d="M256.001,15.657h-18.858c-98.49,0-178.618,80.127-178.618,178.616v123.452
	c0,98.49,80.128,178.616,178.616,178.616H256V15.657H256.001z"/>
<g>
	<polygon style="fill:#E04C00;" points="293.77,336.479 256.001,336.479 245.563,351.507 256.001,367.794 293.77,367.794 	"/>
	<path style="fill:#E04C00;" d="M276.421,0.02V0c-0.174,0-0.347,0.011-0.521,0.014C275.552,0.011,275.208,0,274.859,0h-18.858
		l-10.438,15.657l10.438,22.934c5.453-4.435,12.365-7.143,19.899-7.263c25.413,0.16,49.461,6.167,70.871,16.74h-67.818v31.315
		h111.36c5.219,5.244,10.081,10.843,14.554,16.754H296.301H276.42c-7.735,0-14.842-2.728-20.421-7.265l0,0l-10.438,16.311
		L256,127.452h20.421h19.881c17.871,0,32.412,14.54,32.412,32.411s-14.541,32.411-32.412,32.411h-40.3l-10.438,15.188l10.438,16.127
		h40.3h141.517v16.754H256.001L245.563,256l10.438,15.657h181.818v16.754H296.301h-40.3l-10.438,15.083l10.438,16.232h40.3
		c17.871,0,32.412,14.54,32.412,32.411s-14.541,32.411-32.412,32.411H276.42h-20.419l-10.438,18.112l10.438,20.47l0,0
		c5.578-4.539,12.686-7.265,20.42-7.265h19.881h108.565c-4.473,5.91-9.335,11.509-14.554,16.754h-111.36v31.315h67.818
		c-21.41,10.573-45.458,16.58-70.871,16.74c-7.533-0.12-14.447-2.828-19.899-7.263l-10.438,22.934l10.438,15.658h18.858
		c0.348,0,0.693-0.011,1.041-0.014c0.174,0.001,0.347,0.014,0.521,0.014v-0.02c106.406-0.843,192.712-87.653,192.712-194.254
		V194.274C469.134,87.673,382.827,0.863,276.421,0.02z M351.139,192.274c5.639-9.503,8.889-20.582,8.889-32.411
		c0-11.829-3.25-22.908-8.889-32.411h72.34c2.452,5.432,4.605,11.026,6.459,16.754h-45.087v31.315h51.882
		c0.634,5.507,0.992,11.096,1.061,16.754H351.139z M436.733,336.479h-51.882v31.315h45.087c-1.854,5.728-4.007,11.321-6.459,16.754
		h-72.34c5.639-9.503,8.889-20.582,8.889-32.411s-3.251-22.908-8.889-32.411h86.654
		C437.725,325.384,437.367,330.972,436.733,336.479z"/>
	<polygon style="fill:#E04C00;" points="293.77,144.205 256.001,144.205 245.563,159.863 256.001,175.52 293.77,175.52 	"/>
</g>
<g>
	<rect x="197.995" y="240.342" style="fill:#FF7D3C;" width="58.006" height="31.315"/>
	<path style="fill:#FF7D3C;" d="M256.001,473.409c-7.309-5.945-11.991-15-11.991-25.134c0-10.137,4.681-19.198,11.991-25.146
		v-38.581H88.522c-2.452-5.432-4.605-11.026-6.459-16.754h173.938v-31.315H75.269c-0.634-5.507-0.992-11.096-1.061-16.753h121.251
		H256v-31.315h-60.541c-17.871,0-32.411-14.54-32.411-32.411s14.54-32.411,32.411-32.411H256v-31.315h-60.541H74.209
		c0.069-5.658,0.426-11.247,1.061-16.754h180.731v-31.315H82.063c1.854-5.728,4.007-11.321,6.459-16.754h167.479v-38.58
		c-7.31-5.948-11.991-15.009-11.991-25.146c0-10.136,4.682-19.19,11.991-25.134V0h-18.858C130.02,0,42.868,87.151,42.868,194.274
		v123.452C42.868,424.849,130.019,512,237.142,512H256v-38.59H256.001z M121.689,79.383h66.183V48.069h-22.641
		c17.157-8.474,36.008-14.018,55.899-15.966c-5.356,9.327-8.435,20.119-8.435,31.624c0,11.829,3.25,22.908,8.889,32.411h-114.45
		C111.608,90.227,116.47,84.628,121.689,79.383z M74.183,271.657h32.727v-31.315H74.183v-16.754h66.439
		c-5.638,9.503-8.888,20.582-8.888,32.411c0,11.829,3.251,22.908,8.888,32.411H74.183V271.657z M221.131,479.898
		c-19.892-1.949-38.742-7.493-55.899-15.966h22.641v-31.315h-66.183c-5.219-5.244-10.081-10.843-14.554-16.754h114.449
		c-5.639,9.503-8.889,20.582-8.889,32.411C212.696,459.779,215.775,470.571,221.131,479.898z"/>
</g>
<g>
</g>
<g>
</g>
<g>
</g>
<g>
</g>
<g>
</g>
<g>
</g>
<g>
</g>
<g>
</g>
<g>
</g>
<g>
</g>
<g>
</g>
<g>
</g>
<g>
</g>
<g>
</g>
<g>
</g>
</svg>
